<svg xmlns="http://www.w3.org/2000/svg" viewBox="69.25 113.786 373.752 179.23" width="373.752" height="179.23">
  <rect x="72.403" y="113.786" width="370.599" height="40.094" style="fill: rgb(216, 216, 216); stroke: rgb(0, 0, 0);"></rect>
  <rect x="69.25" y="252.922" width="370.599" height="40.094" style="fill: rgb(216, 216, 216); stroke: rgb(0, 0, 0);"></rect>
  <polygon style="fill: rgb(216, 216, 216); stroke: rgb(0, 0, 0);" points="110.479 251.889 113.507 154.041 148.599 154.534 144.796 251.915"></polygon>
  <polygon style="fill: rgb(216, 216, 216); stroke: rgb(0, 0, 0);" points="179.002 251.935 207.272 154.897 240.595 154.934 213.872 252.521"></polygon>
  <polygon style="fill: rgb(216, 216, 216); stroke: rgb(0, 0, 0);" points="241.695 155.172 269.965 252.21 303.288 252.173 276.565 154.586" transform="matrix(-1, 0, 0, -1, 544.983032, 406.79599)"></polygon>
  <polygon style="fill: rgb(216, 216, 216); stroke: rgb(0, 0, 0);" points="301.963 251.558 330.233 154.52 363.556 154.557 336.833 252.144"></polygon>
  <polygon style="fill: rgb(216, 216, 216); stroke: rgb(0, 0, 0);" points="362.894 155.783 391.164 252.821 424.487 252.784 397.764 155.197" transform="matrix(-1, 0, 0, -1, 787.381042, 408.018005)"></polygon>
</svg>
